HIERARCHY
ROOT Hips
{
	OFFSET 0.000000 0.000000 0.000000
	CHANNELS 6 Xposition Yposition Zposition Xrotation Yrotation Zrotation
	JOINT LeftUpLeg_virtual
	{
		OFFSET 0.000000 0.000000 0.000000
		CHANNELS 3 Xrotation Yrotation Zrotation
		JOINT LeftUpLeg
		{
			OFFSET 11.394100 -6.187798 -0.413800
			CHANNELS 3 Xrotation Yrotation Zrotation
			JOINT LeftLeg
			{
				OFFSET 0.430247 -32.302673 3.732800
				CHANNELS 3 Xrotation Yrotation Zrotation
				JOINT LeftFoot
				{
					OFFSET -0.430247 -48.264931 -6.423300
					CHANNELS 3 Xrotation Yrotation Zrotation
					JOINT LeftToeBase
					{
						OFFSET 4.230900 -16.068199 23.438400
						CHANNELS 3 Xrotation Yrotation Zrotation
						JOINT LeftToe_End
						{
							OFFSET 4.510700 0.695400 19.974600
							CHANNELS 3 Xrotation Yrotation Zrotation
							End Site
							{
								OFFSET 0 0 0
							}
						}
					}
				}
			}
		}
	}
	JOINT RightUpLeg_virtual
	{
		OFFSET 0.000000 0.000000 0.000000
		CHANNELS 3 Xrotation Yrotation Zrotation
		JOINT RightUpLeg
		{
			OFFSET -11.333700 -6.187798 -0.413800
			CHANNELS 3 Xrotation Yrotation Zrotation
			JOINT RightLeg
			{
				OFFSET -0.430392 -32.302628 3.733000
				CHANNELS 3 Xrotation Yrotation Zrotation
				JOINT RightFoot
				{
					OFFSET 0.430392 -48.264973 -6.423500
					CHANNELS 3 Xrotation Yrotation Zrotation
					JOINT RightToeBase
					{
						OFFSET -4.230900 -16.068199 23.438400
						CHANNELS 3 Xrotation Yrotation Zrotation
						JOINT RightToe_End
						{
							OFFSET -4.510700 0.695400 19.974600
							CHANNELS 3 Xrotation Yrotation Zrotation
							End Site
							{
								OFFSET 0 0 0
							}
						}
					}
				}
			}
		}
	}
	JOINT Spine_virtual
	{
		OFFSET 0.000000 0.000000 0.000000
		CHANNELS 3 Xrotation Yrotation Zrotation
		JOINT Spine
		{
			OFFSET -0.002400 12.777504 0.315300
			CHANNELS 3 Xrotation Yrotation Zrotation
			JOINT Spine1
			{
				OFFSET -0.002067 5.816869 0.032633
				CHANNELS 3 Xrotation Yrotation Zrotation
				JOINT Spine1_split
				{
					OFFSET -0.002067 5.816869 0.032633
					CHANNELS 3 Xrotation Yrotation Zrotation
					JOINT Spine2
					{
						OFFSET -0.002067 5.816869 0.032633
						CHANNELS 3 Xrotation Yrotation Zrotation
						JOINT Neck_virtual
						{
							OFFSET 0.000000 0.000000 0.000000
							CHANNELS 3 Xrotation Yrotation Zrotation
							JOINT Neck
							{
								OFFSET -0.003700 21.199493 -0.826900
								CHANNELS 3 Xrotation Yrotation Zrotation
								JOINT Head
								{
									OFFSET 0.000000 20.442200 4.834800
									CHANNELS 3 Xrotation Yrotation Zrotation
									JOINT HeadTop_End
									{
										OFFSET 0.000000 34.668396 4.968400
										CHANNELS 3 Xrotation Yrotation Zrotation
										End Site
										{
											OFFSET 0 0 0
										}
									}
								}
							}
						}
						JOINT LeftShoulder_virtual
						{
							OFFSET 0.000000 0.000000 0.000000
							CHANNELS 3 Xrotation Yrotation Zrotation
							JOINT LeftShoulder
							{
								OFFSET 3.288150 8.794197 -1.372250
								CHANNELS 3 Xrotation Yrotation Zrotation
								JOINT LeftShoulder_split
								{
									OFFSET 3.288150 8.794197 -1.372250
									CHANNELS 3 Xrotation Yrotation Zrotation
									JOINT LeftArm
									{
										OFFSET 11.953299 -2.279007 -0.146200
										CHANNELS 3 Xrotation Yrotation Zrotation
										JOINT LeftForeArm
										{
											OFFSET 18.448900 0.000000 0.000000
											CHANNELS 3 Xrotation Yrotation Zrotation
											JOINT LeftHand
											{
												OFFSET 29.527798 0.000000 0.000000
												CHANNELS 3 Xrotation Yrotation Zrotation
												End Site
												{
													OFFSET 0 0 0
												}
											}
										}
									}
								}
							}
						}
						JOINT RightShoulder_virtual
						{
							OFFSET 0.000000 0.000000 0.000000
							CHANNELS 3 Xrotation Yrotation Zrotation
							JOINT RightShoulder
							{
								OFFSET -3.249400 8.794197 -1.372250
								CHANNELS 3 Xrotation Yrotation Zrotation
								JOINT RightShoulder_split
								{
									OFFSET -3.249400 8.794197 -1.372250
									CHANNELS 3 Xrotation Yrotation Zrotation
									JOINT RightArm
									{
										OFFSET -11.953299 -2.279007 -0.146200
										CHANNELS 3 Xrotation Yrotation Zrotation
										JOINT RightForeArm
										{
											OFFSET -18.448900 0.000000 0.000000
											CHANNELS 3 Xrotation Yrotation Zrotation
											JOINT RightHand
											{
												OFFSET -29.527802 0.000000 0.000000
												CHANNELS 3 Xrotation Yrotation Zrotation
												End Site
												{
													OFFSET 0 0 0
												}
											}
										}
									}
								}
							}
						}
					}
				}
			}
		}
	}
}
MOTION
Frames: 12
Frame Time: 0.03333333
-238.021133 104.072121 -12.161522 0.000000 0.000000 0.000000 2.590884 1.036360 0.492278 -16.925504 18.165863 11.902884 15.022270 -6.315045 3.406430 -2.166658 -14.729148 -1.894250 -1.537374 -0.055412 1.753791 0.000000 0.000000 0.000000 1.351383 3.676533 0.040645 -11.031537 -5.764536 -12.777889 13.183146 -3.988244 2.502480 5.755718 -1.947802 3.350037 -9.373361 -0.713920 -2.981556 0.000000 0.000000 0.000000 3.190562 1.569657 -0.213229 0.752040 1.141568 1.106218 2.445063 0.901734 0.438899 0.805884 -1.947513 0.188695 0.000000 0.000000 0.000000 1.861751 0.565913 0.492812 3.535009 -0.449832 -1.553555 -7.411026 -6.153299 1.423382 0.000000 0.000000 0.000000 0.659336 0.467919 0.160999 0.802119 -0.961987 -10.428919 -2.389517 -0.880575 0.196808 8.293322 -17.378271 -62.807407 -0.371960 -21.947998 0.328191 0.000000 0.000000 0.000000 1.382141 0.617461 0.904885 0.636535 5.250998 13.740028 1.637581 3.106795 -3.102915 12.691715 8.514030 63.591479 1.049307 31.214811 0.397088 0.000000 0.000000 0.000000 
-237.869568 104.008415 -12.122334 0.000000 0.000000 0.000000 2.339203 1.148926 0.371219 -17.140858 18.287338 11.908011 15.208533 -6.462866 3.652168 -1.746639 -14.763384 -1.557009 -1.635305 -0.091040 1.582557 0.000000 0.000000 0.000000 1.115994 3.723551 -0.085515 -10.933067 -5.680380 -12.603344 13.455876 -3.795938 2.423983 5.303522 -1.798356 3.461151 -9.413328 -0.639756 -3.243290 0.000000 0.000000 0.000000 2.929942 1.572390 -0.241151 0.797483 1.169506 1.255723 2.533362 0.967712 0.447069 0.841431 -1.781118 0.195633 0.000000 0.000000 0.000000 1.748405 0.591193 0.534094 3.344294 -0.496261 -1.733456 -7.904382 -6.512112 1.509191 0.000000 0.000000 0.000000 0.660268 0.525084 0.162919 0.844053 -0.223738 -10.001764 -2.312066 -1.030358 0.367516 8.119213 -17.598742 -62.367714 -0.721483 -24.997077 0.197000 0.000000 0.000000 0.000000 1.442154 0.681842 0.909297 0.665257 5.107031 13.499288 1.553048 3.103916 -2.943643 13.155712 9.826026 61.921061 0.912968 34.289930 0.451275 0.000000 0.000000 0.000000 
-237.696228 104.047852 -12.050129 0.000000 0.000000 0.000000 2.089092 1.168662 0.301498 -17.373824 18.240903 11.836752 15.525384 -6.582182 3.885532 -0.922952 -14.905066 -1.240187 -1.946578 -0.152097 1.547886 0.000000 0.000000 0.000000 0.884348 3.713831 -0.141598 -10.780884 -5.608997 -12.374432 13.588890 -3.631811 2.252087 4.757973 -1.635062 3.614783 -9.320194 -0.546652 -3.455326 0.000000 0.000000 0.000000 2.720510 1.522183 -0.221173 0.765667 1.232880 1.390338 2.610905 1.082924 0.455285 0.928391 -1.626960 0.220015 0.000000 0.000000 0.000000 1.619611 0.673324 0.577682 3.336467 -0.560547 -1.894883 -8.374931 -6.872834 1.619736 0.000000 0.000000 0.000000 0.683805 0.639877 0.200034 0.844723 0.692031 -9.245848 -2.119123 -1.098168 0.473058 7.789075 -17.116128 -62.068402 -1.217551 -31.034706 -0.093884 0.000000 0.000000 0.000000 1.477442 0.795633 0.907575 0.714584 4.774722 12.982130 1.623903 3.138717 -2.648225 13.575778 10.888142 59.935545 0.795850 39.970991 0.407544 0.000000 0.000000 0.000000 
-237.546890 104.200615 -12.035648 0.000000 0.000000 0.000000 1.913482 1.186923 0.308732 -17.656920 17.982324 11.640886 15.961124 -6.600700 4.123684 0.067231 -15.087722 -0.820489 -2.235309 -0.257526 1.767658 0.000000 0.000000 0.000000 0.707916 3.605765 -0.124720 -10.579169 -5.520609 -12.104231 13.517682 -3.498420 1.993091 4.323003 -1.471086 3.876862 -9.036571 -0.444679 -3.592809 0.000000 0.000000 0.000000 2.654655 1.396905 -0.143884 0.634034 1.309342 1.498053 2.659864 1.234020 0.444957 1.035165 -1.451993 0.200770 0.000000 0.000000 0.000000 1.508999 0.792052 0.594376 3.538227 -0.611937 -2.013272 -8.789037 -7.135705 1.784864 0.000000 0.000000 0.000000 0.721749 0.788926 0.248776 0.789463 1.664382 -8.301755 -1.867973 -1.060455 0.639700 6.982737 -15.921752 -62.041497 -1.756862 -39.613355 -0.565689 0.000000 0.000000 0.000000 1.481674 0.943878 0.878847 0.763596 4.264297 12.151290 1.763644 3.172100 -2.240789 13.584617 11.404303 57.951088 0.714581 48.047997 0.248003 0.000000 0.000000 0.000000 
-237.415421 104.397064 -12.144157 0.000000 0.000000 0.000000 1.909340 1.243246 0.361935 -18.110381 17.571391 11.288928 16.523804 -6.555564 4.336212 0.901567 -15.227441 -0.282781 -2.343569 -0.428001 2.232807 0.000000 0.000000 0.000000 0.678098 3.429850 -0.038357 -10.539635 -5.406837 -11.876712 13.377624 -3.309044 1.678368 4.074983 -1.288054 4.395837 -8.575651 -0.325368 -3.647965 0.000000 0.000000 0.000000 2.773647 1.237669 -0.004422 0.420241 1.363323 1.557679 2.680830 1.399183 0.397405 1.189474 -1.409092 0.256344 0.000000 0.000000 0.000000 1.450795 0.925683 0.572388 3.835059 -0.628820 -2.062804 -9.195555 -7.185974 2.019519 0.000000 0.000000 0.000000 0.754633 0.945976 0.267118 0.685588 2.549333 -7.321229 -1.731497 -0.920408 0.787986 5.306928 -14.243736 -62.288381 -2.276284 -49.200540 -1.204282 0.000000 0.000000 0.000000 1.468539 1.098289 0.810371 0.793655 3.629852 11.085861 1.919620 3.129592 -1.820091 12.746625 11.235782 56.244637 0.640330 57.562498 -0.002677 0.000000 0.000000 0.000000 
-237.322998 104.473801 -12.395752 0.000000 0.000000 0.000000 2.179333 1.444789 0.440405 -19.137471 17.076001 10.944263 17.384252 -6.578825 4.475288 1.409848 -15.351378 0.183323 -2.429560 -0.645003 2.919739 0.000000 0.000000 0.000000 0.886164 3.350642 0.071215 -10.981172 -5.225011 -11.746369 13.443787 -3.027238 1.356747 3.904272 -1.111455 5.171932 -8.038241 -0.188435 -3.661347 0.000000 0.000000 0.000000 3.100584 1.083737 0.178447 0.186403 1.384094 1.549864 2.683351 1.564957 0.314214 1.307938 -1.539883 0.226472 0.000000 0.000000 0.000000 1.445711 1.052681 0.503613 4.079280 -0.613196 -2.051551 -9.672590 -6.984286 2.309306 0.000000 0.000000 0.000000 0.811143 1.089694 0.235495 0.573887 3.154312 -6.486362 -1.709787 -0.757141 0.907200 2.544943 -12.598337 -62.619844 -2.718502 -57.770020 -1.941286 0.000000 0.000000 0.000000 1.454753 1.236150 0.702177 0.789052 3.034795 9.892467 2.036599 3.189287 -1.505824 10.835321 10.529951 54.892676 0.513548 67.144830 -0.271006 0.000000 0.000000 0.000000 
-237.258224 104.185417 -12.934528 0.000000 0.000000 0.000000 2.741730 1.784775 0.534118 -21.244586 16.473055 10.784511 18.902028 -6.828273 4.496932 1.778107 -15.421761 0.324455 -2.658345 -0.863590 3.704240 0.000000 0.000000 0.000000 1.456646 3.505528 0.145888 -12.314896 -5.037216 -11.754552 14.277616 -2.636607 1.097690 3.438478 -1.019089 5.983227 -7.244775 -0.037998 -3.639665 0.000000 0.000000 0.000000 3.680243 0.970662 0.371802 0.029835 1.372869 1.474163 2.706540 1.722548 0.203089 1.289885 -1.733871 0.249955 0.000000 0.000000 0.000000 1.508524 1.164948 0.403327 4.077682 -0.596853 -1.994985 -10.374059 -6.609772 2.621029 0.000000 0.000000 0.000000 0.909179 1.206787 0.155340 0.466984 3.353453 -5.890797 -1.779449 -0.715553 1.006367 -1.429760 -11.408065 -62.856394 -3.001489 -63.702900 -2.584873 0.000000 0.000000 0.000000 1.485929 1.352929 0.569116 0.759557 2.646840 8.791177 2.102657 3.375547 -1.340860 7.691796 9.560246 53.765425 0.277629 75.523027 -0.429359 0.000000 0.000000 0.000000 
-237.195618 103.312386 -13.668056 0.000000 0.000000 0.000000 3.638158 2.240657 0.619855 -24.665468 15.737034 10.872597 21.468212 -7.242564 4.341719 2.026192 -15.287428 0.240811 -3.032122 -1.034797 4.379828 0.000000 0.000000 0.000000 2.453864 3.918837 0.207302 -14.897855 -4.853256 -11.932901 16.389314 -2.203983 0.955331 2.298212 -1.084430 6.548669 -6.086441 0.120341 -3.595069 0.000000 0.000000 0.000000 4.512363 0.923042 0.571461 0.020076 1.337857 1.328728 2.783927 1.877368 0.082359 1.132063 -1.986301 0.277333 0.000000 0.000000 0.000000 1.643544 1.263024 0.295219 3.706308 -0.590564 -1.912961 -11.438073 -6.160338 2.890401 0.000000 0.000000 0.000000 1.067104 1.305062 0.044128 0.392400 3.099315 -5.524263 -2.047175 -0.832922 1.001342 -6.606640 -10.851025 -62.784315 -3.014235 -66.652927 -2.914584 0.000000 0.000000 0.000000 1.581549 1.441385 0.434195 0.705284 2.612831 7.984453 2.140846 3.669455 -1.308194 3.371147 8.694535 52.618118 -0.417839 81.990424 -0.084439 0.000000 0.000000 0.000000 
-237.166489 101.742828 -14.476021 0.000000 0.000000 0.000000 4.902589 2.593530 0.726129 -29.406608 14.827762 11.196855 25.391831 -7.579877 4.066420 1.880859 -14.737344 0.250899 -3.271746 -1.106416 4.742331 0.000000 0.000000 0.000000 3.841289 4.475525 0.263268 -18.997434 -4.628677 -12.300304 20.356332 -1.798705 0.978342 0.483426 -1.337377 6.776758 -5.139278 0.304230 -3.546723 0.000000 0.000000 0.000000 5.655496 0.953576 0.742580 0.197026 1.302209 1.126868 2.930385 2.027697 -0.037722 0.879256 -2.077487 0.211577 0.000000 0.000000 0.000000 1.853296 1.351366 0.195009 2.947231 -0.643887 -1.831638 -12.949773 -5.746954 3.075001 0.000000 0.000000 0.000000 1.294430 1.396627 -0.068944 0.352564 2.335103 -5.317000 -2.414862 -1.152514 0.986694 -12.639988 -10.824016 -62.284802 -2.758499 -67.333958 -2.877520 0.000000 0.000000 0.000000 1.770115 1.525772 0.317047 0.636722 3.041123 7.617786 2.040043 3.913054 -1.266938 -2.003901 8.281560 51.264299 -2.696838 86.399407 1.981175 0.000000 0.000000 0.000000 
-237.170441 99.416351 -15.382061 0.000000 0.000000 0.000000 6.573640 2.859477 0.846572 -35.172066 13.779348 11.646870 30.584095 -7.677840 3.689407 0.829355 -13.695237 0.613423 -3.035178 -1.043662 4.696931 0.000000 0.000000 0.000000 5.593393 4.968925 0.354860 -24.637877 -4.310581 -12.830448 26.446243 -1.405139 1.135332 -1.836458 -1.690128 6.694699 -4.711307 0.502146 -3.516246 0.000000 0.000000 0.000000 7.217668 1.028895 0.876189 0.545591 1.273514 0.909501 3.157015 2.161804 -0.155285 0.712061 -2.054085 0.267929 0.000000 0.000000 0.000000 2.155666 1.431188 0.115370 1.874122 -0.754041 -1.743024 -14.927986 -5.432275 3.147558 0.000000 0.000000 0.000000 1.578924 1.481655 -0.172361 0.338338 1.149302 -5.157953 -2.830488 -1.520930 0.915207 -19.126879 -10.908150 -61.364380 -2.388211 -66.798458 -2.582790 0.000000 0.000000 0.000000 2.060456 1.618420 0.227273 0.549768 3.930536 7.750976 1.864021 3.984650 -1.218459 -8.158709 8.425626 49.639967 -12.556430 88.903532 11.789903 0.000000 0.000000 0.000000 
-237.178360 96.432137 -16.307724 0.000000 0.000000 0.000000 8.690573 3.075382 0.974581 -41.601408 12.772177 12.286392 36.543022 -7.458518 3.130477 -1.441086 -12.467517 1.224551 -2.618077 -0.893567 4.390704 0.000000 0.000000 0.000000 7.591855 5.146989 0.533958 -31.686060 -3.675198 -13.453376 34.444258 -0.990106 1.370962 -4.587670 -2.075123 6.301246 -4.488179 0.705350 -3.511660 0.000000 0.000000 0.000000 9.213913 1.195770 0.977477 1.017800 1.258794 0.716424 3.439774 2.271332 -0.272690 0.749621 -2.115685 0.270318 0.000000 0.000000 0.000000 2.548254 1.501142 0.048258 0.648226 -0.940199 -1.631505 -17.256109 -5.215220 3.113571 0.000000 0.000000 0.000000 1.894595 1.557842 -0.275386 0.368198 -0.365719 -4.976825 -3.166489 -1.828172 0.858420 -25.316781 -10.789443 -60.075011 -1.979796 -66.185906 -2.177563 0.000000 0.000000 0.000000 2.421085 1.714571 0.151506 0.431853 5.188025 8.204948 1.673398 3.946082 -1.212494 -14.681959 9.143778 47.880883 -90.774901 89.740558 90.093761 0.000000 0.000000 0.000000 
-237.140106 92.946999 -17.239910 0.000000 0.000000 0.000000 11.126418 3.077989 1.104191 -48.615173 11.652333 13.216023 43.066330 -7.288204 2.469036 -4.152856 -11.425289 1.539352 -2.695408 -0.717776 4.085122 0.000000 0.000000 0.000000 9.780869 4.940616 0.768172 -39.850373 -2.661264 -14.091193 43.692628 -0.491777 1.596470 -7.607612 -2.371221 5.712223 -4.219592 0.921195 -3.545990 0.000000 0.000000 0.000000 11.589890 1.395516 1.033361 1.540088 1.267629 0.600775 3.749349 2.342659 -0.402318 0.902655 -2.165361 0.333790 0.000000 0.000000 0.000000 3.014666 1.549352 -0.027029 -0.570396 -1.235817 -1.483049 -19.719313 -5.088248 3.025584 0.000000 0.000000 0.000000 2.226542 1.624621 -0.394874 0.434924 -2.039396 -4.777482 -3.349247 -2.008509 0.835282 -30.574860 -10.170341 -58.582355 -1.594592 -66.091226 -1.786441 0.000000 0.000000 0.000000 2.840628 1.815374 0.066151 0.300672 6.656657 8.776317 1.483897 3.869712 -1.390242 -21.034674 10.240085 46.287448 -98.040187 89.781498 97.528695 0.000000 0.000000 0.000000 
